<?xml version="1.0" encoding="UTF-8"?>
<svg width="22px" height="17px" viewBox="0 0 22 17" version="1.1" xmlns="http://www.w3.org/2000/svg" xmlns:xlink="http://www.w3.org/1999/xlink">
    <!-- Generator: Sketch 55.2 (78181) - https://sketchapp.com -->
    <title>Fill 1</title>
    <desc>Created with Sketch.</desc>
    <g id="Web" stroke="none" stroke-width="1" fill="none" fill-rule="evenodd">
        <g id="Mobile-Copy" transform="translate(-52.000000, -266.000000)" fill="#AB081C">
            <g id="header" transform="translate(18.000000, 109.000000)">
                <g id="icon--contact-copy" transform="translate(0.000000, 155.000000)">
                    <g id="icon--mail" transform="translate(34.000000, 2.000000)">
                        <path d="M21.2798323,13.4280246 C21.2798323,13.8974303 21.1484964,14.3326907 20.938037,14.7156613 L14.2193368,7.14937731 L20.8654075,1.29678742 C21.1239749,1.70977239 21.2798323,2.19491729 21.2798323,2.71901811 L21.2798323,13.4280246 Z M10.6399161,8.52318763 L19.8874543,0.379048872 C19.5081494,0.16988961 19.0807365,0.0418318524 18.6196584,0.0418318524 L2.65991409,0.0418318524 C2.19821256,0.0418318524 1.77085161,0.16988961 1.39294941,0.379048872 L10.6399161,8.52318763 Z M13.218057,8.03030383 L11.0776676,9.91686808 C10.9522024,10.0265198 10.796345,10.0814764 10.6399161,10.0814764 C10.4834353,10.0814764 10.3275779,10.0265198 10.2021647,9.91665892 L8.06115178,8.03030383 L1.25719762,15.6934286 C1.66512835,15.9510082 2.14303905,16.1052109 2.65991409,16.1052109 L18.6196584,16.1052109 C19.1367932,16.1052109 19.6147039,15.9510082 20.0223749,15.6934286 L13.218057,8.03030383 Z M0.414424788,1.29678742 C0.155857385,1.70977239 0,2.19491729 0,2.71901811 L0,13.4280246 C0,13.8974303 0.130504584,14.3326907 0.341535484,14.7156613 L7.05966418,7.14791319 L0.414424788,1.29678742 Z" id="Fill-1"></path>
                    </g>
                </g>
            </g>
        </g>
    </g>
</svg>