<?xml version="1.0" encoding="UTF-8"?>
<svg width="18px" height="18px" viewBox="0 0 18 18" version="1.1" xmlns="http://www.w3.org/2000/svg" xmlns:xlink="http://www.w3.org/1999/xlink">
    <!-- Generator: Sketch 55.2 (78181) - https://sketchapp.com -->
    <title>icon--linkedin</title>
    <desc>Created with Sketch.</desc>
    <g id="Web" stroke="none" stroke-width="1" fill="none" fill-rule="evenodd">
        <g id="Mobile-Copy" transform="translate(-18.000000, -264.000000)" fill="#AB081C">
            <g id="header" transform="translate(18.000000, 109.000000)">
                <g id="icon--contact-copy" transform="translate(0.000000, 155.000000)">
                    <path d="M18,11.1563289 L18,18 L14.2095756,18 L14.2095756,11.615213 C14.2095756,10.011561 13.6619115,8.91692324 12.29005,8.91692324 C11.2423663,8.91692324 10.6197975,9.65396561 10.3454743,10.367871 C10.2457651,10.6228923 10.2197326,10.9774027 10.2197326,11.3349981 L10.2197326,18 L6.42857143,18 C6.42857143,18 6.4794084,7.18550351 6.42857143,6.06592921 L10.2197326,6.06592921 L10.2197326,7.75698771 C10.2121194,7.77009868 10.201559,7.78320966 10.1949281,7.79606355 L10.2197326,7.79606355 L10.2197326,7.75698771 C10.7234362,6.94564982 11.6222928,5.78571429 13.6358791,5.78571429 C16.1303291,5.78571429 18,7.49091207 18,11.1563289 Z M2.26360652,0 C0.894920233,0 0,0.971919217 0,2.24957926 C0,3.49975067 0.869521396,4.5 2.21099464,4.5 L2.23743017,4.5 C3.63255198,4.5 4.5,3.49975067 4.5,2.24957926 C4.47382365,0.971919217 3.63255198,0 2.26360652,0 Z M0,18 L3.85714286,18 L3.85714286,5.78571429 L0,5.78571429 L0,18 Z" id="icon--linkedin"></path>
                </g>
            </g>
        </g>
    </g>
</svg>